<?xml version="1.0" encoding="UTF-8" standalone="no"?>
<svg
   xmlns:dc="http://purl.org/dc/elements/1.1/"
   xmlns:cc="http://creativecommons.org/ns#"
   xmlns:rdf="http://www.w3.org/1999/02/22-rdf-syntax-ns#"
   xmlns:svg="http://www.w3.org/2000/svg"
   xmlns="http://www.w3.org/2000/svg"
   viewBox="0 0 1632 1632"
   height="2032"
   width="2032"
   xml:space="preserve"
   id="svg2"
   version="1.1"><metadata
     id="metadata8"><rdf:RDF><cc:Work
         rdf:about=""><dc:format>image/svg+xml</dc:format><dc:type
           rdf:resource="http://purl.org/dc/dcmitype/StillImage" /></cc:Work></rdf:RDF></metadata><defs
     id="defs6"><clipPath
       id="clipPath18"
       clipPathUnits="userSpaceOnUse"><path
         id="path16"
         d="M 0,1224 H 1224 V 0 H 0 Z" /></clipPath></defs><g
     transform="matrix(1.3333333,0,0,-1.3333333,0,1632)"
     id="g10"><g
       id="g12"><g
         clip-path="url(#clipPath18)"
         id="g14"><g
           transform="translate(256.757,482.7316)"
           id="g20"><path
             id="path22"
             style="fill:#373535;fill-opacity:1;fill-rule:nonzero;stroke:none"
             d="m 0,0 -2.643,20.055 c -6.064,-1.663 -9.001,-8.512 -9.001,-15.555 0,-7.631 3.035,-10.761 5.969,-10.761 C -0.882,-6.261 0,-0.295 0,0 M 34.046,-24.752 H 6.163 L 3.914,-7.045 H 2.446 c 0.879,-11.739 -7.73,-18.685 -21.131,-18.685 -15.166,0 -23.581,7.924 -23.581,20.545 0,14.773 9.59,24.066 30.231,24.066 v 1.468 H -33.46 v 19.469 h 52.244 z" /></g><g
           transform="translate(321.036,457.9792)"
           id="g24"><path
             id="path26"
             style="fill:#373535;fill-opacity:1;fill-rule:nonzero;stroke:none"
             d="M 0,0 H -29.252 V 64.57 H 3.035 L 13.112,27.1 h 1.465 V 64.57 H 43.829 V 0 H 11.644 L 1.468,37.471 H 0 Z" /></g><g
           transform="translate(397.0541,457.9792)"
           id="g28"><path
             id="path30"
             style="fill:#373535;fill-opacity:1;fill-rule:nonzero;stroke:none"
             d="M 0,0 H -29.252 V 64.57 H 3.035 L 13.112,27.1 h 1.465 V 64.57 H 43.829 V 0 H 11.644 L 1.468,37.471 H 0 Z" /></g><g
           transform="translate(498.5094,457.9792)"
           id="g32"><path
             id="path34"
             style="fill:#373535;fill-opacity:1;fill-rule:nonzero;stroke:none"
             d="M 0,0 H -55.667 V 19.469 H -42.46 V 45.102 H -55.667 V 64.57 H 0 V 45.102 H -13.207 V 19.469 l 13.207,0 z" /></g><g
           transform="translate(513.0862,457.9792)"
           id="g36"><path
             id="path38"
             style="fill:#373535;fill-opacity:1;fill-rule:nonzero;stroke:none"
             d="m 0,0 -14.478,64.57 h 32.186 l 4.598,-37.666 h 1.469 l 4.5,37.666 H 61.244 L 45.982,0 Z" /></g><g
           transform="translate(601.3341,501.5156)"
           id="g40"><path
             id="path42"
             style="fill:#373535;fill-opacity:1;fill-rule:nonzero;stroke:none"
             d="m 0,0 23.284,-4.795 -1.662,-7.239 c 0,0 -6.163,2.152 -12.033,2.152 -5.283,0 -9.685,-1.663 -9.685,-6.163 0,-4.403 4.695,-6.066 9.392,-6.066 9.784,0 18.491,6.262 18.491,6.262 l 6.946,-21.818 c -8.512,-4.892 -19.959,-6.847 -32.287,-6.847 -22.991,0 -33.262,7.924 -33.262,21.131 0,12.622 9.293,18.099 20.347,18.099 2.838,0 5.873,-0.391 8.905,-1.173 L -1.172,-5.185 -27.1,1.467 V 20.935 H 31.112 V 1.467 L 0,1.467 Z" /></g><g
           transform="translate(673.1451,493.8848)"
           id="g44"><path
             id="path46"
             style="fill:#373535;fill-opacity:1;fill-rule:nonzero;stroke:none"
             d="m 0,0 c 4.108,0 5.771,2.25 5.771,4.5 0,3.131 -2.542,4.892 -7.631,4.892 H -7.73 V 5.967 C -7.73,5.967 -5.968,0 0,0 m 39.428,-32.09 c -6.261,-3.327 -15.067,-4.793 -22.6,-4.793 -21.621,0 -26.806,14.478 -26.806,33.165 h -1.468 V -35.906 H -36.982 V 28.665 H 6.847 c 22.405,0 31.113,-7.827 31.113,-19.861 0,-19.567 -24.654,-23.871 -37.568,-17.511 l -0.586,-0.98 c 0,0 4.595,-4.696 16.338,-4.696 8.901,0 16.239,4.11 16.239,4.11 z" /></g><g
           transform="translate(714.3374,506.5045)"
           id="g48"><path
             id="path50"
             style="fill:#373535;fill-opacity:1;fill-rule:nonzero;stroke:none"
             d="m 0,0 c 0,10.37 8.316,17.023 23.284,17.023 16.243,0 23.873,-6.359 23.873,-20.35 h 1.465 V 16.045 H 67.897 V -8.804 H 44.906 c 0,0 -0.978,7.043 -8.902,7.043 -2.544,0 -3.815,-1.273 -3.815,-3.62 0,-9.49 35.708,-3.914 35.708,-26.708 0,-12.328 -9.586,-17.414 -32.09,-17.414 -13.306,0 -28.861,2.054 -37.96,6.946 l 6.946,21.719 c 0,0 12.329,-6.262 24.851,-6.262 4.109,0 6.163,0.489 6.163,2.446 C 35.807,-16.73 0,-21.719 0,0" /></g><g
           transform="translate(825.1846,482.7316)"
           id="g52"><path
             id="path54"
             style="fill:#373535;fill-opacity:1;fill-rule:nonzero;stroke:none"
             d="m 0,0 -2.643,20.055 c -6.064,-1.663 -9.001,-8.512 -9.001,-15.555 0,-7.631 3.035,-10.761 5.969,-10.761 C -0.882,-6.261 0,-0.295 0,0 M 34.046,-24.752 H 6.163 L 3.914,-7.045 H 2.446 c 0.879,-11.739 -7.73,-18.685 -21.131,-18.685 -15.166,0 -23.581,7.924 -23.581,20.545 0,14.773 9.59,24.066 30.231,24.066 v 1.468 H -33.46 v 19.469 h 52.244 z" /></g><g
           transform="translate(897.19,493.8848)"
           id="g56"><path
             id="path58"
             style="fill:#373535;fill-opacity:1;fill-rule:nonzero;stroke:none"
             d="m 0,0 c 4.108,0 5.771,2.25 5.771,4.5 0,3.131 -2.542,4.892 -7.631,4.892 H -7.73 V 5.967 C -7.73,5.967 -5.968,0 0,0 m 39.428,-32.09 c -6.261,-3.327 -15.067,-4.793 -22.6,-4.793 -21.621,0 -26.806,14.478 -26.806,33.165 h -1.468 V -35.906 H -36.982 V 28.665 H 6.847 c 22.405,0 31.113,-7.827 31.113,-19.861 0,-19.567 -24.654,-23.871 -37.568,-17.511 l -0.586,-0.98 c 0,0 4.595,-4.696 16.338,-4.696 8.901,0 16.239,4.11 16.239,4.11 z" /></g><g
           transform="translate(977.2242,522.6467)"
           id="g60"><path
             id="path62"
             style="fill:#373535;fill-opacity:1;fill-rule:nonzero;stroke:none"
             d="M 0,0 H 32.284 L 17.708,-64.667 h -55.375 v 19.371 h 28.078 v 1.467 c -21.132,0 -25.339,7.533 -27.393,16.338 L -43.438,0 h 32.871 l 4.599,-37.665 H -4.5 Z" /></g><g
           transform="translate(322.0519,411.2326)"
           id="g64"><path
             id="path66"
             style="fill:#373535;fill-opacity:1;fill-rule:nonzero;stroke:none"
             d="m 0,0 c -1.331,-0.561 -2.675,-0.841 -4.032,-0.841 -2.14,0 -4.064,0.371 -5.771,1.115 -1.71,0.744 -3.153,1.767 -4.325,3.072 -1.175,1.304 -2.076,2.837 -2.701,4.598 -0.627,1.762 -0.939,3.66 -0.939,5.695 0,2.086 0.312,4.024 0.939,5.811 0.625,1.786 1.526,3.347 2.701,4.676 1.172,1.332 2.615,2.375 4.325,3.131 1.707,0.757 3.631,1.136 5.771,1.136 1.433,0 2.825,-0.215 4.169,-0.645 1.344,-0.432 2.554,-1.064 3.637,-1.899 1.083,-0.836 1.978,-1.866 2.682,-3.092 0.703,-1.226 1.137,-2.635 1.293,-4.226 h -5.87 c -0.366,1.565 -1.07,2.739 -2.115,3.522 -1.044,0.782 -2.309,1.174 -3.796,1.174 -1.382,0 -2.557,-0.268 -3.522,-0.803 -0.965,-0.535 -1.749,-1.251 -2.348,-2.151 -0.601,-0.901 -1.038,-1.925 -1.312,-3.073 -0.274,-1.149 -0.411,-2.335 -0.411,-3.561 0,-1.174 0.137,-2.315 0.411,-3.424 0.274,-1.11 0.711,-2.108 1.312,-2.995 0.599,-0.887 1.383,-1.597 2.348,-2.132 0.965,-0.535 2.14,-0.803 3.522,-0.803 2.035,0 3.605,0.516 4.717,1.546 1.108,1.031 1.755,2.524 1.936,4.481 h -6.185 v 4.579 H 8.179 V -0.215 H 4.264 L 3.637,2.956 C 2.542,1.546 1.328,0.561 0,0" /></g><g
           transform="translate(466.6549,426.3191)"
           id="g68"><path
             id="path70"
             style="fill:#373535;fill-opacity:1;fill-rule:nonzero;stroke:none"
             d="M 0,0 C 1.408,0 2.465,0.314 3.169,0.94 3.873,1.565 4.226,2.583 4.226,3.992 4.226,5.349 3.873,6.333 3.169,6.946 2.465,7.559 1.408,7.866 0,7.866 H -6.733 V 0 Z m 2.191,12.641 c 1.252,0 2.379,-0.203 3.386,-0.607 C 6.58,11.629 7.44,11.075 8.159,10.371 8.876,9.666 9.424,8.851 9.803,7.925 10.179,6.999 10.37,6 10.37,4.932 10.37,3.288 10.023,1.865 9.331,0.666 8.64,-0.535 7.513,-1.448 5.946,-2.073 v -0.078 c 0.758,-0.211 1.385,-0.529 1.879,-0.961 0.497,-0.43 0.901,-0.937 1.213,-1.525 0.313,-0.588 0.542,-1.233 0.685,-1.938 0.144,-0.704 0.242,-1.408 0.293,-2.113 0.026,-0.443 0.054,-0.965 0.08,-1.565 0.025,-0.601 0.07,-1.214 0.137,-1.84 0.063,-0.626 0.169,-1.22 0.312,-1.78 0.143,-0.561 0.36,-1.037 0.646,-1.428 H 5.048 c -0.341,0.887 -0.548,1.942 -0.627,3.17 -0.077,1.226 -0.195,2.4 -0.351,3.521 -0.21,1.462 -0.653,2.53 -1.331,3.21 -0.678,0.679 -1.787,1.018 -3.328,1.018 h -6.144 v -10.919 h -6.143 v 27.942 z" /></g><g
           transform="translate(605.952,421.4479)"
           id="g72"><path
             id="path74"
             style="fill:#373535;fill-opacity:1;fill-rule:nonzero;stroke:none"
             d="M 0,0 C 0.274,-1.11 0.71,-2.108 1.312,-2.995 1.911,-3.882 2.694,-4.592 3.659,-5.128 4.624,-5.663 5.8,-5.93 7.182,-5.93 c 1.382,0 2.557,0.267 3.522,0.802 0.965,0.536 1.749,1.246 2.347,2.133 0.602,0.887 1.039,1.885 1.313,2.995 0.273,1.108 0.41,2.25 0.41,3.424 0,1.226 -0.137,2.412 -0.41,3.56 -0.274,1.148 -0.711,2.172 -1.313,3.074 -0.598,0.899 -1.382,1.616 -2.347,2.151 -0.965,0.535 -2.14,0.803 -3.522,0.803 C 5.8,13.012 4.624,12.744 3.659,12.209 2.694,11.674 1.911,10.957 1.312,10.058 0.71,9.156 0.274,8.132 0,6.984 -0.274,5.836 -0.411,4.65 -0.411,3.424 -0.411,2.25 -0.274,1.108 0,0 m -5.615,9.234 c 0.624,1.787 1.526,3.348 2.701,4.677 1.172,1.331 2.615,2.374 4.325,3.131 1.707,0.756 3.631,1.135 5.771,1.135 2.165,0 4.095,-0.379 5.793,-1.135 1.694,-0.757 3.131,-1.8 4.303,-3.131 1.175,-1.329 2.076,-2.89 2.7,-4.677 0.628,-1.786 0.94,-3.724 0.94,-5.81 0,-2.035 -0.312,-3.934 -0.94,-5.695 -0.624,-1.761 -1.525,-3.294 -2.7,-4.599 -1.172,-1.304 -2.609,-2.328 -4.303,-3.071 -1.698,-0.744 -3.628,-1.115 -5.793,-1.115 -2.14,0 -4.064,0.371 -5.771,1.115 -1.71,0.743 -3.153,1.767 -4.325,3.071 -1.175,1.305 -2.077,2.838 -2.701,4.599 -0.627,1.761 -0.939,3.66 -0.939,5.695 0,2.086 0.312,4.024 0.939,5.81" /></g><g
           transform="translate(770.183,413.1499)"
           id="g76"><path
             id="path78"
             style="fill:#373535;fill-opacity:1;fill-rule:nonzero;stroke:none"
             d="m 0,0 c -2.112,-1.839 -5.035,-2.758 -8.765,-2.758 -3.783,0 -6.713,0.912 -8.787,2.739 -2.073,1.826 -3.111,4.643 -3.111,8.454 V 25.81 h 6.143 V 8.435 c 0,-0.758 0.067,-1.502 0.198,-2.231 0.13,-0.731 0.404,-1.377 0.822,-1.938 0.417,-0.56 0.996,-1.017 1.742,-1.369 0.742,-0.352 1.739,-0.529 2.993,-0.529 2.192,0 3.704,0.489 4.539,1.468 0.834,0.978 1.251,2.511 1.251,4.599 V 25.81 H 3.169 V 8.435 C 3.169,4.651 2.115,1.839 0,0" /></g><g
           transform="translate(908.133,425.8111)"
           id="g80"><path
             id="path82"
             style="fill:#373535;fill-opacity:1;fill-rule:nonzero;stroke:none"
             d="M 0,0 C 0.704,0 1.382,0.051 2.035,0.156 2.688,0.26 3.261,0.462 3.758,0.763 4.252,1.062 4.65,1.487 4.952,2.035 5.252,2.583 5.401,3.299 5.401,4.186 5.401,5.073 5.252,5.792 4.952,6.339 4.65,6.887 4.252,7.311 3.758,7.612 3.261,7.911 2.688,8.113 2.035,8.218 1.382,8.322 0.704,8.374 0,8.374 H -4.774 V 0 Z m 1.685,13.148 c 1.745,0 3.232,-0.253 4.458,-0.762 1.227,-0.508 2.227,-1.18 2.994,-2.016 0.771,-0.835 1.331,-1.787 1.685,-2.857 0.35,-1.07 0.529,-2.178 0.529,-3.327 0,-1.121 -0.179,-2.224 -0.529,-3.305 C 10.468,-0.202 9.908,-1.161 9.137,-1.997 8.37,-2.831 7.37,-3.503 6.143,-4.011 4.917,-4.521 3.43,-4.776 1.685,-4.776 h -6.459 v -10.017 h -6.144 v 27.941 z" /></g><g
           transform="translate(752.1059,576.5082)"
           id="g84"><path
             id="path86"
             style="fill:#373535;fill-opacity:1;fill-rule:nonzero;stroke:none"
             d="m 0,0 -56.04,237.1 h -191.837 v -71.488 h 78.669 v -5.392 c -75.792,0 -111.004,-34.124 -111.004,-88.369 0,-46.345 30.897,-75.441 86.586,-75.441 47.006,0 77.928,23.284 77.794,62.937 l -30.74,17.765 -44.073,-21.252 15.448,45.012 -27.231,31.879 46.323,6.567 27.243,40.954 13.181,-40.954 44.068,-6.567 -38.176,-31.879 -0.007,-42.507 L -102.385,0 Z" /></g></g></g></g></svg>