<?xml version="1.0" encoding="UTF-8"?>
<svg xmlns="http://www.w3.org/2000/svg" xmlns:xlink="http://www.w3.org/1999/xlink" width="3555px" height="3555px" viewBox="0 0 3555 3555" version="1.1">
<g id="surface1">
<path style=" stroke:none;fill-rule:nonzero;fill:rgb(21.568627%,20.784314%,20.784314%);fill-opacity:1;" d="M 745.726562 2152.949219 L 738.050781 2094.699219 C 720.4375 2099.53125 711.910156 2119.421875 711.910156 2139.878906 C 711.910156 2162.042969 720.722656 2171.132812 729.246094 2171.132812 C 743.167969 2171.132812 745.726562 2153.804688 745.726562 2152.949219 M 844.613281 2224.839844 L 763.628906 2224.839844 L 757.097656 2173.410156 L 752.832031 2173.410156 C 755.386719 2207.503906 730.382812 2227.679688 691.460938 2227.679688 C 647.410156 2227.679688 622.96875 2204.664062 622.96875 2168.007812 C 622.96875 2125.101562 650.824219 2098.109375 710.773438 2098.109375 L 710.773438 2093.847656 L 648.546875 2093.847656 L 648.546875 2037.300781 L 800.285156 2037.300781 Z M 844.613281 2224.839844 "/>
<path style=" stroke:none;fill-rule:nonzero;fill:rgb(21.568627%,20.784314%,20.784314%);fill-opacity:1;" d="M 932.421875 2224.839844 L 847.460938 2224.839844 L 847.460938 2037.300781 L 941.234375 2037.300781 L 970.503906 2146.128906 L 974.757812 2146.128906 L 974.757812 2037.300781 L 1059.71875 2037.300781 L 1059.71875 2224.839844 L 966.238281 2224.839844 L 936.683594 2116.007812 L 932.421875 2116.007812 Z M 932.421875 2224.839844 "/>
<path style=" stroke:none;fill-rule:nonzero;fill:rgb(21.568627%,20.784314%,20.784314%);fill-opacity:1;" d="M 1153.207031 2224.839844 L 1068.25 2224.839844 L 1068.25 2037.300781 L 1162.023438 2037.300781 L 1191.292969 2146.128906 L 1195.546875 2146.128906 L 1195.546875 2037.300781 L 1280.507812 2037.300781 L 1280.507812 2224.839844 L 1187.027344 2224.839844 L 1157.472656 2116.007812 L 1153.207031 2116.007812 Z M 1153.207031 2224.839844 "/>
<path style=" stroke:none;fill-rule:nonzero;fill:rgb(21.568627%,20.784314%,20.784314%);fill-opacity:1;" d="M 1447.875 2224.839844 L 1286.195312 2224.839844 L 1286.195312 2168.292969 L 1324.554688 2168.292969 L 1324.554688 2093.84375 L 1286.195312 2093.84375 L 1286.195312 2037.300781 L 1447.875 2037.300781 L 1447.875 2093.84375 L 1409.519531 2093.84375 L 1409.519531 2168.292969 L 1447.875 2168.292969 Z M 1447.875 2224.839844 "/>
<path style=" stroke:none;fill-rule:nonzero;fill:rgb(21.568627%,20.784314%,20.784314%);fill-opacity:1;" d="M 1490.214844 2224.839844 L 1448.164062 2037.300781 L 1541.644531 2037.300781 L 1555 2146.699219 L 1559.265625 2146.699219 L 1572.335938 2037.300781 L 1668.089844 2037.300781 L 1623.765625 2224.839844 Z M 1490.214844 2224.839844 "/>
<path style=" stroke:none;fill-rule:nonzero;fill:rgb(21.568627%,20.784314%,20.784314%);fill-opacity:1;" d="M 1746.523438 2098.390625 L 1814.148438 2112.320312 L 1809.320312 2133.34375 C 1809.320312 2133.34375 1791.421875 2127.09375 1774.371094 2127.09375 C 1759.027344 2127.09375 1746.242188 2131.921875 1746.242188 2144.992188 C 1746.242188 2157.78125 1759.878906 2162.613281 1773.519531 2162.613281 C 1801.9375 2162.613281 1827.226562 2144.425781 1827.226562 2144.425781 L 1847.402344 2207.792969 C 1822.679688 2222 1789.429688 2227.679688 1753.625 2227.679688 C 1686.851562 2227.679688 1657.019531 2204.664062 1657.019531 2166.304688 C 1657.019531 2129.648438 1684.011719 2113.738281 1716.117188 2113.738281 C 1724.359375 2113.738281 1733.171875 2114.875 1741.980469 2117.144531 L 1743.117188 2113.453125 L 1667.8125 2094.132812 L 1667.8125 2037.589844 L 1836.882812 2037.589844 L 1836.882812 2094.132812 L 1746.523438 2094.132812 Z M 1746.523438 2098.390625 "/>
<path style=" stroke:none;fill-rule:nonzero;fill:rgb(21.568627%,20.784314%,20.784314%);fill-opacity:1;" d="M 1955.089844 2120.554688 C 1967.023438 2120.554688 1971.851562 2114.019531 1971.851562 2107.484375 C 1971.851562 2098.390625 1964.46875 2093.277344 1949.6875 2093.277344 L 1932.640625 2093.277344 L 1932.640625 2103.222656 C 1932.640625 2103.222656 1937.757812 2120.554688 1955.089844 2120.554688 M 2069.605469 2213.757812 C 2051.421875 2223.421875 2025.84375 2227.679688 2003.964844 2227.679688 C 1941.167969 2227.679688 1926.109375 2185.628906 1926.109375 2131.355469 L 1921.847656 2131.355469 L 1921.847656 2224.839844 L 1847.679688 2224.839844 L 1847.679688 2037.300781 L 1974.976562 2037.300781 C 2040.050781 2037.300781 2065.34375 2060.03125 2065.34375 2094.984375 C 2065.34375 2151.816406 1993.738281 2164.316406 1956.230469 2145.84375 L 1954.527344 2148.691406 C 1954.527344 2148.691406 1967.871094 2162.328125 2001.980469 2162.328125 C 2027.832031 2162.328125 2049.144531 2150.390625 2049.144531 2150.390625 Z M 2069.605469 2213.757812 "/>
<path style=" stroke:none;fill-rule:nonzero;fill:rgb(21.568627%,20.784314%,20.784314%);fill-opacity:1;" d="M 2074.730469 2083.902344 C 2074.730469 2053.785156 2098.882812 2034.460938 2142.355469 2034.460938 C 2189.53125 2034.460938 2211.691406 2052.929688 2211.691406 2093.566406 L 2215.949219 2093.566406 L 2215.949219 2037.300781 L 2271.929688 2037.300781 L 2271.929688 2109.472656 L 2205.15625 2109.472656 C 2205.15625 2109.472656 2202.316406 2089.015625 2179.300781 2089.015625 C 2171.910156 2089.015625 2168.21875 2092.714844 2168.21875 2099.53125 C 2168.21875 2127.09375 2271.929688 2110.898438 2271.929688 2177.101562 C 2271.929688 2212.90625 2244.089844 2227.679688 2178.726562 2227.679688 C 2140.082031 2227.679688 2094.902344 2221.714844 2068.476562 2207.503906 L 2088.652344 2144.425781 C 2088.652344 2144.425781 2124.460938 2162.613281 2160.828125 2162.613281 C 2172.761719 2162.613281 2178.726562 2161.191406 2178.726562 2155.507812 C 2178.726562 2132.492188 2074.730469 2146.984375 2074.730469 2083.902344 "/>
<path style=" stroke:none;fill-rule:nonzero;fill:rgb(21.568627%,20.784314%,20.784314%);fill-opacity:1;" d="M 2396.675781 2152.949219 L 2389 2094.699219 C 2371.386719 2099.53125 2362.855469 2119.421875 2362.855469 2139.878906 C 2362.855469 2162.042969 2371.671875 2171.132812 2380.191406 2171.132812 C 2394.113281 2171.132812 2396.675781 2153.804688 2396.675781 2152.949219 M 2495.558594 2224.839844 L 2414.574219 2224.839844 L 2408.042969 2173.410156 L 2403.78125 2173.410156 C 2406.332031 2207.503906 2381.328125 2227.679688 2342.40625 2227.679688 C 2298.359375 2227.679688 2273.917969 2204.664062 2273.917969 2168.007812 C 2273.917969 2125.101562 2301.769531 2098.109375 2361.722656 2098.109375 L 2361.722656 2093.847656 L 2299.496094 2093.847656 L 2299.496094 2037.300781 L 2451.230469 2037.300781 Z M 2495.558594 2224.839844 "/>
<path style=" stroke:none;fill-rule:nonzero;fill:rgb(21.568627%,20.784314%,20.784314%);fill-opacity:1;" d="M 2605.808594 2120.554688 C 2617.742188 2120.554688 2622.570312 2114.019531 2622.570312 2107.484375 C 2622.570312 2098.390625 2615.1875 2093.277344 2600.40625 2093.277344 L 2583.359375 2093.277344 L 2583.359375 2103.222656 C 2583.359375 2103.222656 2588.476562 2120.554688 2605.808594 2120.554688 M 2720.324219 2213.757812 C 2702.140625 2223.421875 2676.5625 2227.679688 2654.683594 2227.679688 C 2591.886719 2227.679688 2576.828125 2185.628906 2576.828125 2131.355469 L 2572.566406 2131.355469 L 2572.566406 2224.839844 L 2498.398438 2224.839844 L 2498.398438 2037.300781 L 2625.695312 2037.300781 C 2690.769531 2037.300781 2716.0625 2060.03125 2716.0625 2094.984375 C 2716.0625 2151.816406 2644.457031 2164.316406 2606.949219 2145.84375 L 2605.246094 2148.691406 C 2605.246094 2148.691406 2618.589844 2162.328125 2652.699219 2162.328125 C 2678.550781 2162.328125 2699.863281 2150.390625 2699.863281 2150.390625 Z M 2720.324219 2213.757812 "/>
<path style=" stroke:none;fill-rule:nonzero;fill:rgb(21.568627%,20.784314%,20.784314%);fill-opacity:1;" d="M 2838.261719 2037.019531 L 2932.027344 2037.019531 L 2889.691406 2224.839844 L 2728.859375 2224.839844 L 2728.859375 2168.578125 L 2810.410156 2168.578125 L 2810.410156 2164.316406 C 2749.035156 2164.316406 2736.816406 2142.4375 2730.851562 2116.863281 L 2712.097656 2037.019531 L 2807.570312 2037.019531 L 2820.929688 2146.414062 L 2825.191406 2146.414062 Z M 2838.261719 2037.019531 "/>
<path style=" stroke:none;fill-rule:nonzero;fill:rgb(21.568627%,20.784314%,20.784314%);fill-opacity:1;" d="M 935.371094 2360.609375 C 931.503906 2362.242188 927.601562 2363.054688 923.660156 2363.054688 C 917.445312 2363.054688 911.855469 2361.976562 906.898438 2359.816406 C 901.933594 2357.65625 897.742188 2354.683594 894.335938 2350.894531 C 890.925781 2347.105469 888.308594 2342.652344 886.492188 2337.539062 C 884.671875 2332.421875 883.765625 2326.910156 883.765625 2320.996094 C 883.765625 2314.9375 884.671875 2309.3125 886.492188 2304.121094 C 888.308594 2298.933594 890.925781 2294.398438 894.335938 2290.539062 C 897.742188 2286.671875 901.933594 2283.640625 906.898438 2281.445312 C 911.855469 2279.246094 917.445312 2278.144531 923.660156 2278.144531 C 927.824219 2278.144531 931.867188 2278.769531 935.769531 2280.019531 C 939.671875 2281.273438 943.1875 2283.109375 946.332031 2285.535156 C 949.476562 2287.964844 952.078125 2290.953125 954.121094 2294.515625 C 956.164062 2298.078125 957.425781 2302.167969 957.878906 2306.789062 L 940.828125 2306.789062 C 939.765625 2302.246094 937.722656 2298.835938 934.6875 2296.558594 C 931.652344 2294.289062 927.980469 2293.152344 923.660156 2293.152344 C 919.648438 2293.152344 916.234375 2293.929688 913.429688 2295.484375 C 910.628906 2297.035156 908.351562 2299.117188 906.613281 2301.730469 C 904.867188 2304.347656 903.597656 2307.320312 902.800781 2310.65625 C 902.003906 2313.992188 901.609375 2317.4375 901.609375 2320.996094 C 901.609375 2324.40625 902.003906 2327.722656 902.800781 2330.941406 C 903.597656 2334.167969 904.867188 2337.066406 906.613281 2339.640625 C 908.351562 2342.21875 910.628906 2344.28125 913.429688 2345.832031 C 916.234375 2347.386719 919.648438 2348.164062 923.660156 2348.164062 C 929.570312 2348.164062 934.132812 2346.667969 937.359375 2343.675781 C 940.578125 2340.679688 942.457031 2336.34375 942.984375 2330.660156 L 925.019531 2330.660156 L 925.019531 2317.363281 L 959.125 2317.363281 L 959.125 2361.234375 L 947.753906 2361.234375 L 945.933594 2352.027344 C 942.753906 2356.121094 939.226562 2358.980469 935.371094 2360.609375 "/>
<path style=" stroke:none;fill-rule:nonzero;fill:rgb(21.568627%,20.784314%,20.784314%);fill-opacity:1;" d="M 1355.359375 2316.792969 C 1359.449219 2316.792969 1362.515625 2315.882812 1364.5625 2314.0625 C 1366.605469 2312.25 1367.632812 2309.292969 1367.632812 2305.199219 C 1367.632812 2301.257812 1366.605469 2298.398438 1364.5625 2296.621094 C 1362.515625 2294.839844 1359.449219 2293.949219 1355.359375 2293.949219 L 1335.800781 2293.949219 L 1335.800781 2316.792969 Z M 1361.722656 2280.078125 C 1365.359375 2280.078125 1368.632812 2280.667969 1371.554688 2281.84375 C 1374.46875 2283.019531 1376.964844 2284.628906 1379.054688 2286.671875 C 1381.136719 2288.71875 1382.730469 2291.085938 1383.828125 2293.777344 C 1384.921875 2296.464844 1385.476562 2299.367188 1385.476562 2302.46875 C 1385.476562 2307.242188 1384.46875 2311.378906 1382.460938 2314.859375 C 1380.453125 2318.347656 1377.179688 2321 1372.628906 2322.816406 L 1372.628906 2323.042969 C 1374.828125 2323.652344 1376.648438 2324.578125 1378.085938 2325.832031 C 1379.527344 2327.082031 1380.703125 2328.554688 1381.609375 2330.261719 C 1382.515625 2331.96875 1383.183594 2333.84375 1383.597656 2335.890625 C 1384.015625 2337.933594 1384.300781 2339.980469 1384.449219 2342.027344 C 1384.523438 2343.3125 1384.605469 2344.832031 1384.679688 2346.574219 C 1384.753906 2348.316406 1384.882812 2350.097656 1385.078125 2351.917969 C 1385.261719 2353.734375 1385.570312 2355.460938 1385.984375 2357.085938 C 1386.398438 2358.714844 1387.03125 2360.097656 1387.859375 2361.234375 L 1370.019531 2361.234375 C 1369.027344 2358.65625 1368.429688 2355.59375 1368.199219 2352.027344 C 1367.976562 2348.464844 1367.632812 2345.058594 1367.179688 2341.800781 C 1366.570312 2337.554688 1365.28125 2334.453125 1363.3125 2332.476562 C 1361.34375 2330.503906 1358.121094 2329.519531 1353.648438 2329.519531 L 1335.800781 2329.519531 L 1335.800781 2361.234375 L 1317.960938 2361.234375 L 1317.960938 2280.078125 Z M 1361.722656 2280.078125 "/>
<path style=" stroke:none;fill-rule:nonzero;fill:rgb(21.568627%,20.784314%,20.784314%);fill-opacity:1;" d="M 1759.933594 2330.941406 C 1760.730469 2334.164062 1761.996094 2337.0625 1763.746094 2339.640625 C 1765.484375 2342.214844 1767.757812 2344.277344 1770.5625 2345.835938 C 1773.363281 2347.390625 1776.78125 2348.164062 1780.792969 2348.164062 C 1784.808594 2348.164062 1788.21875 2347.390625 1791.023438 2345.835938 C 1793.824219 2344.277344 1796.101562 2342.214844 1797.839844 2339.640625 C 1799.589844 2337.0625 1800.855469 2334.164062 1801.652344 2330.941406 C 1802.445312 2327.722656 1802.84375 2324.40625 1802.84375 2320.996094 C 1802.84375 2317.4375 1802.445312 2313.992188 1801.652344 2310.65625 C 1800.855469 2307.324219 1799.589844 2304.347656 1797.839844 2301.730469 C 1796.101562 2299.117188 1793.824219 2297.035156 1791.023438 2295.480469 C 1788.21875 2293.929688 1784.808594 2293.148438 1780.792969 2293.148438 C 1776.78125 2293.148438 1773.363281 2293.929688 1770.5625 2295.480469 C 1767.757812 2297.035156 1765.484375 2299.117188 1763.746094 2301.730469 C 1761.996094 2304.347656 1760.730469 2307.324219 1759.933594 2310.65625 C 1759.136719 2313.992188 1758.742188 2317.4375 1758.742188 2320.996094 C 1758.742188 2324.40625 1759.136719 2327.722656 1759.933594 2330.941406 M 1743.625 2304.121094 C 1745.4375 2298.933594 1748.058594 2294.398438 1751.46875 2290.539062 C 1754.875 2286.671875 1759.066406 2283.644531 1764.03125 2281.445312 C 1768.988281 2279.25 1774.578125 2278.148438 1780.792969 2278.148438 C 1787.082031 2278.148438 1792.6875 2279.25 1797.617188 2281.445312 C 1802.539062 2283.644531 1806.710938 2286.671875 1810.117188 2290.539062 C 1813.527344 2294.398438 1816.144531 2298.933594 1817.957031 2304.121094 C 1819.78125 2309.308594 1820.6875 2314.9375 1820.6875 2320.996094 C 1820.6875 2326.90625 1819.78125 2332.421875 1817.957031 2337.539062 C 1816.144531 2342.652344 1813.527344 2347.105469 1810.117188 2350.894531 C 1806.710938 2354.683594 1802.539062 2357.65625 1797.617188 2359.816406 C 1792.6875 2361.976562 1787.082031 2363.054688 1780.792969 2363.054688 C 1774.578125 2363.054688 1768.988281 2361.976562 1764.03125 2359.816406 C 1759.066406 2357.65625 1754.875 2354.683594 1751.46875 2350.894531 C 1748.058594 2347.105469 1745.4375 2342.652344 1743.625 2337.539062 C 1741.804688 2332.421875 1740.898438 2326.90625 1740.898438 2320.996094 C 1740.898438 2314.9375 1741.804688 2309.308594 1743.625 2304.121094 "/>
<path style=" stroke:none;fill-rule:nonzero;fill:rgb(21.568627%,20.784314%,20.784314%);fill-opacity:1;" d="M 2236.929688 2355.042969 C 2230.792969 2360.382812 2222.304688 2363.054688 2211.472656 2363.054688 C 2200.484375 2363.054688 2191.972656 2360.402344 2185.949219 2355.097656 C 2179.929688 2349.792969 2176.914062 2341.613281 2176.914062 2330.542969 L 2176.914062 2280.078125 L 2194.757812 2280.078125 L 2194.757812 2330.542969 C 2194.757812 2332.746094 2194.949219 2334.90625 2195.332031 2337.023438 C 2195.710938 2339.148438 2196.503906 2341.023438 2197.71875 2342.652344 C 2198.929688 2344.277344 2200.613281 2345.605469 2202.777344 2346.628906 C 2204.933594 2347.652344 2207.828125 2348.164062 2211.472656 2348.164062 C 2217.835938 2348.164062 2222.230469 2346.746094 2224.65625 2343.902344 C 2227.078125 2341.0625 2228.289062 2336.609375 2228.289062 2330.542969 L 2228.289062 2280.078125 L 2246.132812 2280.078125 L 2246.132812 2330.542969 C 2246.132812 2341.535156 2243.070312 2349.703125 2236.929688 2355.042969 "/>
<path style=" stroke:none;fill-rule:nonzero;fill:rgb(21.568627%,20.784314%,20.784314%);fill-opacity:1;" d="M 2637.59375 2318.269531 C 2639.636719 2318.269531 2641.605469 2318.121094 2643.503906 2317.816406 C 2645.398438 2317.515625 2647.0625 2316.925781 2648.507812 2316.054688 C 2649.941406 2315.183594 2651.097656 2313.949219 2651.976562 2312.359375 C 2652.847656 2310.765625 2653.277344 2308.6875 2653.277344 2306.113281 C 2653.277344 2303.535156 2652.847656 2301.445312 2651.976562 2299.859375 C 2651.097656 2298.265625 2649.941406 2297.035156 2648.507812 2296.160156 C 2647.0625 2295.292969 2645.398438 2294.707031 2643.503906 2294.402344 C 2641.605469 2294.097656 2639.636719 2293.949219 2637.59375 2293.949219 L 2623.726562 2293.949219 L 2623.726562 2318.269531 Z M 2642.484375 2280.082031 C 2647.554688 2280.082031 2651.875 2280.816406 2655.433594 2282.296875 C 2658.996094 2283.769531 2661.902344 2285.722656 2664.128906 2288.152344 C 2666.367188 2290.574219 2667.996094 2293.339844 2669.023438 2296.449219 C 2670.039062 2299.554688 2670.558594 2302.773438 2670.558594 2306.113281 C 2670.558594 2309.367188 2670.039062 2312.570312 2669.023438 2315.710938 C 2667.996094 2318.855469 2666.367188 2321.640625 2664.128906 2324.070312 C 2661.902344 2326.492188 2658.996094 2328.445312 2655.433594 2329.917969 C 2651.875 2331.398438 2647.554688 2332.140625 2642.484375 2332.140625 L 2623.726562 2332.140625 L 2623.726562 2361.234375 L 2605.882812 2361.234375 L 2605.882812 2280.082031 Z M 2642.484375 2280.082031 "/>
<path style=" stroke:none;fill-rule:nonzero;fill:rgb(21.568627%,20.784314%,20.784314%);fill-opacity:1;" d="M 2184.425781 1880.582031 L 2021.660156 1191.945312 L 1464.488281 1191.945312 L 1464.488281 1399.578125 L 1692.976562 1399.578125 L 1692.976562 1415.238281 C 1472.84375 1415.238281 1370.574219 1514.347656 1370.574219 1671.898438 C 1370.574219 1806.503906 1460.3125 1891.007812 1622.054688 1891.007812 C 1758.582031 1891.007812 1848.390625 1823.382812 1848 1708.214844 L 1758.71875 1656.617188 L 1630.714844 1718.34375 L 1675.582031 1587.609375 L 1596.492188 1495.019531 L 1731.03125 1475.945312 L 1810.15625 1357 L 1848.441406 1475.945312 L 1976.429688 1495.019531 L 1865.550781 1587.609375 L 1865.53125 1711.066406 L 1887.058594 1880.582031 Z M 2184.425781 1880.582031 "/>
</g>
</svg>
